<svg xmlns="http://www.w3.org/2000/svg" viewBox="0 0 128 128" role="img" aria-label="CalmFeed">
  <circle cx="64" cy="64" r="60" fill="#f3e9d8"/>
  <circle cx="64" cy="64" r="54" fill="none" stroke="#2a2623" stroke-width="10"/>
  <path fill="#2a2623" d="M20 78c18-2 28-18 42-26 10-6 18-6 28-2 8 3 16 10 22 14-8 2-18 2-28-2-12-5-20-4-28 2-10 8-20 14-36 14z"/>
  <path fill="#2a2623" d="M34 70c14-18 34-28 52-24 6 1 12 4 18 8-10-1-20 1-30 7-12 7-24 14-40 9z"/>
  <path fill="#d8c7a8" d="M74 78c8 2 16 1 24-4 2 6-2 12-10 16-8 4-18 4-26 0 4-5 8-10 12-12z"/>
  <path fill="#2a2623" d="M78 84c6 1 12 0 18-3-1 5-5 9-12 11-7 2-14 1-20-2 5-3 9-5 14-6z"/>
  <path fill="#f3e9d8" d="M22 72c16 0 28-10 42-18 8-5 16-6 24-4-14-6-30-4-44 4C32 62 26 68 22 72z" opacity=".35"/>
</svg>
